<!DOCTYPE svg PUBLIC "-//W3C//DTD SVG 1.1//EN" "http://www.w3.org/Graphics/SVG/1.1/DTD/svg11.dtd">
<!-- Uploaded to: SVG Repo, www.svgrepo.com, Transformed by: SVG Repo Mixer Tools -->
<svg width="800px" height="800px" viewBox="0 -0.5 25 25" fill="none" xmlns="http://www.w3.org/2000/svg">
<g id="SVGRepo_bgCarrier" stroke-width="0"/>
<g id="SVGRepo_tracerCarrier" stroke-linecap="round" stroke-linejoin="round"/>
<g id="SVGRepo_iconCarrier"> <path fill-rule="evenodd" clip-rule="evenodd" d="M10.5 13.0005C10.5 11.8959 11.3954 11.0005 12.5 11.0005C13.6046 11.0005 14.5 11.8959 14.5 13.0005C14.5 14.1051 13.6046 15.0005 12.5 15.0005C11.9696 15.0005 11.4609 14.7898 11.0858 14.4147C10.7107 14.0396 10.5 13.5309 10.5 13.0005Z" stroke="#ffffff" stroke-width="1.5" stroke-linecap="round" stroke-linejoin="round"/> <path fill-rule="evenodd" clip-rule="evenodd" d="M7.627 7.07343L10.359 5.55343C11.6913 4.81552 13.3097 4.81552 14.642 5.55343L17.374 7.07343C18.6778 7.78618 19.4919 9.15054 19.5 10.6364V14.8184C19.4649 17.1628 17.5363 19.0349 15.192 19.0004H9.808C7.46367 19.0349 5.53509 17.1628 5.5 14.8184V10.6364C5.50829 9.15033 6.32281 7.78591 7.627 7.07343Z" stroke="#ffffff" stroke-width="1.5" stroke-linecap="round" stroke-linejoin="round"/> </g>
</svg>